<svg width="30" height="42" viewBox="0 0 30 42" xmlns="http://www.w3.org/2000/svg"><title>logo</title><g fill="#4DA1FF" fill-rule="nonzero"><path d="M20.42 21.213l4.785-4.78c-5.726-5.72-15.009-5.72-20.735 0l4.785 4.78a7.901 7.901 0 0 1 11.165 0z" fill-opacity=".3"/><path d="M25.205 16.435l-1.957 1.928-2.828 2.85a7.88 7.88 0 0 1 1.712 8.595 7.895 7.895 0 0 1-7.295 4.87 7.895 7.895 0 0 1-7.294-4.87 7.88 7.88 0 0 1 1.712-8.595L20.42 10.06a6.755 6.755 0 0 0 0-9.56L4.47 16.433A14.637 14.637 0 0 0 .553 30.64a14.655 14.655 0 0 0 10.43 10.42 14.673 14.673 0 0 0 14.222-3.914c5.726-5.717 5.726-14.99 0-20.71z" fill-opacity=".298"/><path d="M22.576 25.232a7.885 7.885 0 0 1-4.705 8.84 7.9 7.9 0 0 1-9.596-2.894 7.88 7.88 0 0 1 .98-9.965L20.42 10.06a6.755 6.755 0 0 0 0-9.56L4.47 16.433c-5.726 5.72-5.726 14.993 0 20.713.09.09.18.178.27.264 7.815 7.42 20.545.091 18.224-10.426l-.388-1.752z"/></g></svg>