<?xml version="1.0" encoding="UTF-8"?>
<svg width="17px" height="17px" viewBox="0 0 17 17" version="1.1" xmlns="http://www.w3.org/2000/svg" xmlns:xlink="http://www.w3.org/1999/xlink">
    <!-- Generator: Sketch 52.2 (67145) - http://www.bohemiancoding.com/sketch -->
    <title>paper_plane_icon</title>
    <desc>Created with Sketch.</desc>
    <g id="paper_plane_icon" stroke="none" stroke-width="1" fill="none" fill-rule="evenodd" opacity="0.74">
        <g id="paper-plane-icon" transform="translate(1.000000, 1.000000)" fill="#4DA1FF" stroke="#4DA1FF" stroke-width="0.5">
            <path d="M1.04205237,6.90115918 L12.1149872,11.6155635 L13.3703182,1.09872428 L1.04205237,6.90115918 Z M12.3764496,12.3475329 C12.3328725,12.3475329 12.2896067,12.3386462 12.2491423,12.3217614 L0.184206522,7.18494173 C0.0743300395,7.13813835 0.00242786561,7.03475618 -6.22529634e-05,6.92011751 C-0.00224110672,6.80547884 0.0653033597,6.69972689 0.173312253,6.64877637 L13.6062569,0.327060872 C13.7080405,0.279072591 13.8297451,0.287663086 13.9231245,0.350166341 C14.016504,0.412373372 14.0663063,0.518125326 14.0535445,0.625950846 L12.6855356,12.0847822 C12.67433,12.178389 12.616746,12.2619242 12.5305257,12.3084313 C12.4829022,12.334499 12.4296759,12.3475329 12.3764496,12.3475329 L12.3764496,12.3475329 Z" id="Fill-1"></path>
            <path d="M5.85237006,14.1976885 C5.82404496,14.1976885 5.7954086,14.1938376 5.7670835,14.186432 C5.63230583,14.1497002 5.54017144,14.0320993 5.54110524,13.8990947 L5.58001334,9.15951139 C5.58063587,9.08871387 5.60802717,9.02058236 5.65689575,8.96726204 L13.505127,0.398687826 C13.6184274,0.275458659 13.8151467,0.262721029 13.9446329,0.369954102 C14.0741191,0.477779622 14.0875035,0.66469694 13.9745143,0.787926107 L6.20192045,9.27385384 L6.1723503,12.8335771 L7.88741947,10.1583786 C7.977375,10.0185609 8.16880287,9.9744235 8.3154086,10.059736 C8.46201433,10.1447523 8.50839279,10.3275225 8.41874852,10.4667477 L6.11819022,14.0557972 C6.06060623,14.1455531 5.95882263,14.1976885 5.85237006,14.1976885" id="Fill-4"></path>
        </g>
    </g>
</svg>