<svg width="21" height="21" viewBox="0 0 21 21" xmlns="http://www.w3.org/2000/svg"><title>settings_icon</title><g fill="#007AFF" fill-rule="evenodd"><path d="M6.052 16.947c.086 0 .173.024.248.073a7.69 7.69 0 0 0 2.56 1.064c.18.039.32.183.353.365l.23 1.263c.04.217.229.375.45.375h1.215c.22 0 .409-.158.449-.375l.23-1.263a.457.457 0 0 1 .352-.365 7.69 7.69 0 0 0 2.56-1.064.454.454 0 0 1 .509.008l1.059.733c.177.123.43.1.582-.052l.86-.86a.456.456 0 0 0 .052-.582l-.733-1.06a.457.457 0 0 1-.009-.507c.511-.79.87-1.653 1.065-2.56a.457.457 0 0 1 .364-.354l1.264-.23a.456.456 0 0 0 .375-.448V9.892a.457.457 0 0 0-.375-.45l-1.264-.228a.457.457 0 0 1-.364-.354 7.685 7.685 0 0 0-1.065-2.56.458.458 0 0 1 .009-.508l.733-1.059a.456.456 0 0 0-.052-.582l-.86-.86a.465.465 0 0 0-.582-.052l-1.06.733a.455.455 0 0 1-.507.008 7.684 7.684 0 0 0-2.56-1.064.457.457 0 0 1-.354-.364l-.23-1.264a.457.457 0 0 0-.448-.375H9.892c-.22 0-.41.158-.449.375l-.23 1.264a.457.457 0 0 1-.352.364A7.688 7.688 0 0 0 6.3 3.98a.454.454 0 0 1-.507-.008l-1.06-.733a.466.466 0 0 0-.582.053l-.86.859a.456.456 0 0 0-.052.582l.733 1.06a.456.456 0 0 1 .008.507 7.704 7.704 0 0 0-1.064 2.56.457.457 0 0 1-.364.354l-1.264.23a.456.456 0 0 0-.375.448v1.216c0 .22.157.41.375.449l1.264.23a.457.457 0 0 1 .364.353c.196.907.554 1.77 1.064 2.56.1.155.098.355-.008.507l-.733 1.06a.456.456 0 0 0 .052.582l.86.86a.467.467 0 0 0 .583.052l1.059-.733a.457.457 0 0 1 .26-.081M11.107 21H9.892a1.37 1.37 0 0 1-1.347-1.124l-.176-.97a8.561 8.561 0 0 1-2.303-.957l-.813.563a1.397 1.397 0 0 1-1.748-.158l-.86-.86a1.37 1.37 0 0 1-.157-1.747l.563-.813a8.574 8.574 0 0 1-.957-2.303l-.97-.176A1.37 1.37 0 0 1 0 11.108V9.892c0-.662.473-1.229 1.125-1.347l.969-.176c.204-.808.525-1.58.957-2.303l-.563-.813a1.37 1.37 0 0 1 .158-1.748l.86-.859a1.397 1.397 0 0 1 1.747-.158l.813.563a8.567 8.567 0 0 1 2.303-.957l.176-.97A1.37 1.37 0 0 1 9.892 0h1.216a1.37 1.37 0 0 1 1.347 1.124l.176.97c.808.204 1.58.525 2.303.957l.813-.563a1.397 1.397 0 0 1 1.748.158l.86.86c.468.467.534 1.202.157 1.747l-.563.813c.432.723.753 1.495.957 2.303l.97.176A1.369 1.369 0 0 1 21 9.892v1.216c0 .662-.473 1.229-1.125 1.347l-.969.176a8.59 8.59 0 0 1-.957 2.303l.563.813c.377.544.31 1.28-.158 1.748l-.86.859a1.365 1.365 0 0 1-1.748.158l-.812-.563a8.567 8.567 0 0 1-2.303.957l-.176.97A1.37 1.37 0 0 1 11.108 21"/><path d="M10.5 7.304A3.2 3.2 0 0 0 7.304 10.5a3.2 3.2 0 0 0 3.196 3.196 3.2 3.2 0 0 0 3.196-3.196A3.2 3.2 0 0 0 10.5 7.304m0 7.305A4.113 4.113 0 0 1 6.391 10.5 4.113 4.113 0 0 1 10.5 6.391a4.113 4.113 0 0 1 4.109 4.109 4.113 4.113 0 0 1-4.109 4.109"/></g></svg>